<svg width="250" height="39" viewBox="0 0 250 39" fill="none" xmlns="http://www.w3.org/2000/svg">
<path d="M86.0292 17.8228C86.0292 14.5436 83.4017 11.8852 80.1606 11.8852C76.9194 11.8852 74.2919 14.5436 74.2919 17.8228V31.7462C74.2919 34.9874 71.6645 37.6148 68.4233 37.6148C65.1822 37.6148 62.5547 34.9874 62.5547 31.7462V17.8228C62.5547 7.98508 70.4371 0.0100098 80.1606 0.0100098C89.884 0.0100098 97.7664 7.98508 97.7664 17.8228V31.7462C97.7664 34.9874 95.139 37.6148 91.8978 37.6148C88.6567 37.6148 86.0292 34.9874 86.0292 31.7462V17.8228Z" fill="#329BFB" fill-opacity="0.75"/>
<path d="M109.504 17.8228C109.504 14.5436 106.876 11.8852 103.635 11.8852C100.394 11.8852 97.7664 14.5436 97.7664 17.8228V31.7462C97.7664 34.9874 95.1389 37.6148 91.8978 37.6148C88.6566 37.6148 86.0291 34.9874 86.0291 31.7462V17.8228C86.0291 7.98508 93.9116 0.0100098 103.635 0.0100098C113.358 0.0100098 121.241 7.98508 121.241 17.8228V31.7462C121.241 34.9874 118.613 37.6148 115.372 37.6148C112.131 37.6148 109.504 34.9874 109.504 31.7462V17.8228Z" fill="#00C7C7" fill-opacity="0.75"/>
<path d="M132.978 17.8228C132.978 14.5436 130.351 11.8852 127.11 11.8852C123.868 11.8852 121.241 14.5436 121.241 17.8228V31.7462C121.241 34.9874 118.613 37.6148 115.372 37.6148C112.131 37.6148 109.504 34.9874 109.504 31.7462V17.8228C109.504 7.98508 117.386 0.0100098 127.11 0.0100098C136.833 0.0100098 144.715 7.98508 144.715 17.8228V31.7462C144.715 34.9874 142.088 37.6148 138.847 37.6148C135.606 37.6148 132.978 34.9874 132.978 31.7462V17.8228Z" fill="#0ADC38" fill-opacity="0.75"/>
<path fill-rule="evenodd" clip-rule="evenodd" d="M7.52891 37.6754C6.67426 38.5092 5.61841 38.9523 4.43012 38.9523C3.23182 38.9523 2.16247 38.517 1.29982 37.6754L1.28061 37.6567C0.431568 36.7976 0 35.7155 0 34.502V4.49221C0 3.27877 0.43174 2.19677 1.28079 1.33774C2.13958 0.468847 3.21482 0.0100098 4.43012 0.0100098C5.63564 0.0100098 6.69731 0.477109 7.54794 1.33774C7.99126 1.78627 8.3208 2.29558 8.53453 2.85266C11.3015 0.967441 14.3977 0.0100098 17.795 0.0100098C19.0028 0.0100098 20.071 0.463979 20.9129 1.33762C21.7764 2.1894 22.2251 3.27019 22.2251 4.49221C22.2251 5.7142 21.7764 6.79498 20.913 7.64675C20.0711 8.52042 19.0028 8.9744 17.795 8.9744C15.3706 8.9744 13.3032 9.93444 11.5217 11.9773C9.73282 14.0496 8.82873 16.534 8.82873 19.5131V34.502C8.82873 35.7155 8.39699 36.7975 7.54794 37.6565L7.52891 37.6754ZM26.5353 33.2618L26.529 33.2555C24.7602 31.4658 23.3827 29.4169 22.4046 27.1156C21.3809 24.6988 20.8669 22.1702 20.8669 19.545C20.8669 14.1748 22.7666 9.54544 26.5291 5.73876L26.5357 5.73209C28.3271 3.9426 30.3838 2.55095 32.698 1.56333C35.0887 0.527364 37.6063 0.0100098 40.2379 0.0100098C45.5455 0.0100098 50.1298 1.93179 53.9121 5.73561L53.9152 5.73875C55.6878 7.53216 57.0651 9.60503 58.042 11.948C59.0653 14.3653 59.5774 16.9017 59.5774 19.545C59.5774 20.7584 59.1457 21.8404 58.2966 22.6994C57.4378 23.5683 56.3626 24.0272 55.1473 24.0272H30.6931C31.3737 25.4764 32.3807 26.7229 33.7289 27.7794L33.7304 27.7806C35.6341 29.2766 37.7857 30.0198 40.2379 30.0198C44.2871 30.0198 47.2185 28.7842 49.2534 26.4749C50.0452 25.5507 51.092 25.0455 52.2983 24.9829C53.4866 24.9213 54.5732 25.2882 55.4748 26.0746L55.4857 26.084L55.4963 26.0937C56.397 26.9107 56.8967 27.9718 56.9592 29.1938C57.022 30.4024 56.6297 31.4951 55.8333 32.3957C51.9813 36.801 46.7221 38.9523 40.2379 38.9523C34.914 38.9523 30.3196 37.0447 26.5353 33.2618ZM46.7393 11.2089C44.8109 9.69077 42.66 8.94251 40.2379 8.94251C37.7921 8.94251 35.6313 9.69245 33.705 11.2089C32.3605 12.2875 31.3543 13.5672 30.675 15.0628H49.7693C49.09 13.5672 48.0838 12.2875 46.7393 11.2089Z" fill="#329BFB"/>
<path fill-rule="evenodd" clip-rule="evenodd" d="M152.34 33.2618L152.334 33.2555C150.565 31.4658 149.187 29.4169 148.209 27.1156C147.186 24.6988 146.672 22.1702 146.672 19.545C146.672 14.1748 148.571 9.54544 152.334 5.73876L152.34 5.73207C154.132 3.94259 156.188 2.55097 158.503 1.56336C160.893 0.527373 163.411 0.0100098 166.043 0.0100098C171.35 0.0100098 175.935 1.93179 179.717 5.73561L179.72 5.73875C181.492 7.53216 182.87 9.60503 183.847 11.948C184.87 14.3653 185.382 16.9017 185.382 19.545C185.382 20.7584 184.95 21.8404 184.101 22.6994C183.243 23.5683 182.167 24.0272 180.952 24.0272H156.498C157.178 25.4764 158.185 26.7229 159.534 27.7794L159.535 27.7806C161.439 29.2766 163.59 30.0198 166.043 30.0198C170.092 30.0198 173.023 28.7842 175.058 26.4749C175.85 25.5507 176.897 25.0455 178.103 24.9829C179.291 24.9213 180.378 25.2882 181.28 26.0746L181.29 26.084L181.301 26.0937C182.202 26.9107 182.701 27.9718 182.764 29.1938C182.827 30.4024 182.434 31.4951 181.638 32.3957C177.786 36.801 172.527 38.9523 166.043 38.9523C160.719 38.9523 156.124 37.0447 152.34 33.2618ZM172.544 11.2087C170.615 9.69072 168.465 8.94251 166.043 8.94251C163.597 8.94251 161.436 9.69241 159.51 11.2087C158.165 12.2874 157.159 13.5671 156.48 15.0628H175.574C174.895 13.5671 173.888 12.2874 172.544 11.2087ZM190.509 36.5344L190.505 36.5322C188.552 35.2069 186.963 33.5562 185.757 31.584L185.749 31.572C185.132 30.541 184.95 29.3965 185.231 28.2242C185.505 27.0573 186.153 26.1061 187.145 25.4476L187.167 25.433L187.189 25.4192C188.216 24.7893 189.358 24.6135 190.526 24.8934C191.698 25.1743 192.638 25.8571 193.264 26.8978C193.776 27.7242 194.463 28.432 195.346 29.0216L195.361 29.0318L195.376 29.0424C196.356 29.7331 197.257 30.0198 198.099 30.0198C199.171 30.0198 200.014 29.6916 200.715 29.058L200.727 29.0469L200.74 29.0361C201.448 28.424 201.739 27.7625 201.739 26.9757C201.739 26.0466 201.461 25.599 201.101 25.3285L201.085 25.3166C200.898 25.1717 200.486 24.9426 199.742 24.6547C199.023 24.3762 198.079 24.0749 196.898 23.7528L196.89 23.7505C193.797 22.8873 191.383 21.8956 189.796 20.7126C186.981 18.6605 185.6 15.6815 185.6 11.9867C185.6 8.66784 186.862 5.80542 189.308 3.47535C191.734 1.16523 194.693 0.0100098 198.099 0.0100098C200.554 0.0100098 202.837 0.658827 204.919 1.95136L204.925 1.95532C206.985 3.249 208.528 4.99512 209.514 7.17759C210.042 8.28768 210.085 9.46808 209.657 10.6203C209.243 11.7702 208.442 12.6188 207.339 13.1167C206.259 13.6144 205.117 13.6636 204 13.2553C202.862 12.8397 202.016 12.0347 201.501 10.9303L201.489 10.9057C201.245 10.3574 200.843 9.88767 200.215 9.49791C199.593 9.13224 198.899 8.94251 198.099 8.94251C197.027 8.94251 196.167 9.2712 195.441 9.91467L195.439 9.91615C194.75 10.5242 194.46 11.1882 194.46 11.9867C194.46 12.8962 194.72 13.3198 195.025 13.5626C195.234 13.7063 195.658 13.9244 196.385 14.2009C197.113 14.4777 198.064 14.7835 199.249 15.1171L199.253 15.118C202.366 16.0027 204.786 16.9945 206.366 18.1507L206.377 18.1585C209.187 20.2536 210.567 23.2603 210.567 26.9757C210.567 30.2895 209.319 33.1505 206.896 35.482L206.885 35.4923C204.443 37.7958 201.487 38.9523 198.099 38.9523C195.41 38.9523 192.872 38.1283 190.509 36.5344ZM248.729 1.34722C247.885 0.467303 246.814 0.0100098 245.601 0.0100098C244.394 0.0100098 243.325 0.46394 242.484 1.33751C241.956 1.85791 241.583 2.46379 241.373 3.13514C238.326 1.05731 234.88 0.0100098 231.07 0.0100098C225.839 0.0100098 221.344 1.93777 217.667 5.74857C213.97 9.5366 212.109 14.153 212.109 19.5131C212.109 24.8546 213.972 29.4604 217.669 33.2474C221.347 37.037 225.842 38.9523 231.07 38.9523C234.877 38.9523 238.319 37.9069 241.365 35.8328C241.575 36.5186 241.954 37.1368 242.493 37.666C243.341 38.5187 244.407 38.9523 245.601 38.9523C246.801 38.9523 247.87 38.5155 248.719 37.6565C249.568 36.7975 250 35.7155 250 34.502V4.49221C250 3.28323 249.571 2.20472 248.729 1.34722ZM238.214 26.9613C240.194 24.8806 241.171 22.4244 241.171 19.5131C241.171 16.5777 240.192 14.1116 238.214 12.0329C236.217 9.97741 233.862 8.9744 231.07 8.9744C228.277 8.9744 225.922 9.97818 223.924 12.0353C221.925 14.1155 220.938 16.5808 220.938 19.5131C220.938 22.4212 221.923 24.8768 223.924 26.9589C225.922 29.0161 228.277 30.0198 231.07 30.0198C233.862 30.0198 236.217 29.0168 238.214 26.9613Z" fill="#47E56A"/>
</svg>
